<mxfile host="65bd71144e">
    <diagram id="No5nXfthBoftBND1_ZuV" name="Page-1">
        <mxGraphModel dx="5495" dy="2618" grid="1" gridSize="10" guides="1" tooltips="1" connect="1" arrows="1" fold="1" page="1" pageScale="1" pageWidth="850" pageHeight="1100" math="0" shadow="0">
            <root>
                <mxCell id="0"/>
                <mxCell id="1" parent="0"/>
                <mxCell id="23" style="edgeStyle=none;html=1;fontSize=24;entryX=1;entryY=0;entryDx=0;entryDy=0;" edge="1" parent="1" source="11" target="34">
                    <mxGeometry relative="1" as="geometry">
                        <mxPoint x="310" y="260" as="targetPoint"/>
                    </mxGeometry>
                </mxCell>
                <mxCell id="49" style="edgeStyle=none;html=1;fontSize=24;entryX=0;entryY=0;entryDx=0;entryDy=0;" edge="1" parent="1" source="11" target="51">
                    <mxGeometry relative="1" as="geometry">
                        <mxPoint x="470" y="280" as="targetPoint"/>
                    </mxGeometry>
                </mxCell>
                <mxCell id="11" value="&lt;font style=&quot;font-size: 24px;&quot;&gt;a&amp;gt;b&lt;/font&gt;" style="ellipse;whiteSpace=wrap;html=1;" vertex="1" parent="1">
                    <mxGeometry x="345" y="130" width="80" height="80" as="geometry"/>
                </mxCell>
                <mxCell id="12" value="&lt;font style=&quot;font-size: 24px;&quot;&gt;a,b,c,d,e&lt;/font&gt;" style="text;html=1;align=center;verticalAlign=middle;resizable=0;points=[];autosize=1;strokeColor=none;fillColor=none;" vertex="1" parent="1">
                    <mxGeometry x="100" y="50" width="120" height="40" as="geometry"/>
                </mxCell>
                <mxCell id="13" value="+1" style="text;html=1;align=center;verticalAlign=middle;resizable=0;points=[];autosize=1;strokeColor=none;fillColor=none;fontSize=24;" vertex="1" parent="1">
                    <mxGeometry x="730" y="-110" width="50" height="40" as="geometry"/>
                </mxCell>
                <mxCell id="18" style="edgeStyle=none;html=1;fontSize=24;" edge="1" parent="1" source="17" target="11">
                    <mxGeometry relative="1" as="geometry"/>
                </mxCell>
                <mxCell id="22" style="edgeStyle=none;html=1;fontSize=24;" edge="1" parent="1" source="17" target="19">
                    <mxGeometry relative="1" as="geometry"/>
                </mxCell>
                <mxCell id="17" value="start" style="ellipse;whiteSpace=wrap;html=1;fontSize=24;" vertex="1" parent="1">
                    <mxGeometry x="660" y="-120" width="80" height="80" as="geometry"/>
                </mxCell>
                <mxCell id="89" style="edgeStyle=none;html=1;fontSize=24;" edge="1" parent="1" source="19" target="88">
                    <mxGeometry relative="1" as="geometry"/>
                </mxCell>
                <mxCell id="96" style="edgeStyle=none;html=1;fontSize=24;" edge="1" parent="1" source="19" target="97">
                    <mxGeometry relative="1" as="geometry">
                        <mxPoint x="1130" y="300" as="targetPoint"/>
                    </mxGeometry>
                </mxCell>
                <mxCell id="19" value="&lt;font style=&quot;font-size: 24px;&quot;&gt;a&amp;lt;b&lt;/font&gt;" style="ellipse;whiteSpace=wrap;html=1;" vertex="1" parent="1">
                    <mxGeometry x="990" y="150" width="80" height="80" as="geometry"/>
                </mxCell>
                <mxCell id="20" value="+1" style="text;html=1;align=center;verticalAlign=middle;resizable=0;points=[];autosize=1;strokeColor=none;fillColor=none;fontSize=24;" vertex="1" parent="1">
                    <mxGeometry x="1080" y="160" width="50" height="40" as="geometry"/>
                </mxCell>
                <mxCell id="35" style="edgeStyle=none;html=1;fontSize=24;entryX=0.813;entryY=0.042;entryDx=0;entryDy=0;entryPerimeter=0;" edge="1" parent="1" source="34" target="36">
                    <mxGeometry relative="1" as="geometry">
                        <mxPoint x="210" y="380" as="targetPoint"/>
                    </mxGeometry>
                </mxCell>
                <mxCell id="55" style="edgeStyle=none;html=1;fontSize=24;entryX=0.296;entryY=0.064;entryDx=0;entryDy=0;entryPerimeter=0;" edge="1" parent="1" source="34" target="58">
                    <mxGeometry relative="1" as="geometry">
                        <mxPoint x="350" y="450" as="targetPoint"/>
                    </mxGeometry>
                </mxCell>
                <mxCell id="34" value="a&amp;gt;c" style="ellipse;whiteSpace=wrap;html=1;fontSize=24;" vertex="1" parent="1">
                    <mxGeometry x="250" y="270" width="80" height="80" as="geometry"/>
                </mxCell>
                <mxCell id="37" style="edgeStyle=none;html=1;fontSize=24;" edge="1" parent="1" source="36" target="39">
                    <mxGeometry relative="1" as="geometry">
                        <mxPoint x="160" y="520" as="targetPoint"/>
                    </mxGeometry>
                </mxCell>
                <mxCell id="229" style="edgeStyle=none;html=1;fontSize=48;" edge="1" parent="1" source="36" target="226">
                    <mxGeometry relative="1" as="geometry"/>
                </mxCell>
                <mxCell id="36" value="a&amp;gt;d" style="ellipse;whiteSpace=wrap;html=1;fontSize=24;" vertex="1" parent="1">
                    <mxGeometry x="160" y="430" width="80" height="80" as="geometry"/>
                </mxCell>
                <mxCell id="39" value="a&amp;gt;e" style="ellipse;whiteSpace=wrap;html=1;fontSize=24;" vertex="1" parent="1">
                    <mxGeometry x="-20" y="730" width="80" height="80" as="geometry"/>
                </mxCell>
                <mxCell id="42" value="1" style="text;html=1;align=center;verticalAlign=middle;resizable=0;points=[];autosize=1;strokeColor=none;fillColor=none;fontSize=24;" vertex="1" parent="1">
                    <mxGeometry x="-30" y="820" width="40" height="40" as="geometry"/>
                </mxCell>
                <mxCell id="52" style="edgeStyle=none;html=1;fontSize=24;" edge="1" parent="1" source="51" target="53">
                    <mxGeometry relative="1" as="geometry">
                        <mxPoint x="410" y="450" as="targetPoint"/>
                    </mxGeometry>
                </mxCell>
                <mxCell id="76" style="edgeStyle=none;html=1;exitX=1;exitY=1;exitDx=0;exitDy=0;fontSize=24;entryX=0.5;entryY=0;entryDx=0;entryDy=0;" edge="1" parent="1" source="51" target="77">
                    <mxGeometry relative="1" as="geometry">
                        <mxPoint x="590" y="410" as="targetPoint"/>
                    </mxGeometry>
                </mxCell>
                <mxCell id="51" value="a&amp;lt;c" style="ellipse;whiteSpace=wrap;html=1;fontSize=24;" vertex="1" parent="1">
                    <mxGeometry x="510" y="270" width="80" height="80" as="geometry"/>
                </mxCell>
                <mxCell id="71" style="edgeStyle=none;html=1;fontSize=24;entryX=0.5;entryY=0;entryDx=0;entryDy=0;" edge="1" parent="1" source="53" target="73">
                    <mxGeometry relative="1" as="geometry">
                        <mxPoint x="550" y="580" as="targetPoint"/>
                    </mxGeometry>
                </mxCell>
                <mxCell id="237" style="edgeStyle=none;html=1;fontSize=48;" edge="1" parent="1" source="53" target="235">
                    <mxGeometry relative="1" as="geometry"/>
                </mxCell>
                <mxCell id="53" value="c&amp;gt;d" style="ellipse;whiteSpace=wrap;html=1;fontSize=24;" vertex="1" parent="1">
                    <mxGeometry x="480" y="430" width="80" height="80" as="geometry"/>
                </mxCell>
                <mxCell id="54" value="+1" style="text;html=1;align=center;verticalAlign=middle;resizable=0;points=[];autosize=1;strokeColor=none;fillColor=none;fontSize=24;" vertex="1" parent="1">
                    <mxGeometry x="590" y="280" width="50" height="40" as="geometry"/>
                </mxCell>
                <mxCell id="62" style="edgeStyle=none;html=1;entryX=0.65;entryY=0.018;entryDx=0;entryDy=0;entryPerimeter=0;fontSize=24;" edge="1" parent="1" source="58" target="61">
                    <mxGeometry relative="1" as="geometry"/>
                </mxCell>
                <mxCell id="67" style="edgeStyle=none;html=1;fontSize=24;" edge="1" parent="1" source="58" target="66">
                    <mxGeometry relative="1" as="geometry"/>
                </mxCell>
                <mxCell id="58" value="a&amp;lt;d" style="ellipse;whiteSpace=wrap;html=1;fontSize=24;" vertex="1" parent="1">
                    <mxGeometry x="305" y="430" width="80" height="80" as="geometry"/>
                </mxCell>
                <mxCell id="61" value="d&amp;gt;e" style="ellipse;whiteSpace=wrap;html=1;fontSize=24;" vertex="1" parent="1">
                    <mxGeometry x="225" y="750" width="80" height="80" as="geometry"/>
                </mxCell>
                <mxCell id="63" value="+1" style="text;html=1;align=center;verticalAlign=middle;resizable=0;points=[];autosize=1;strokeColor=none;fillColor=none;fontSize=24;" vertex="1" parent="1">
                    <mxGeometry x="370" y="420" width="50" height="40" as="geometry"/>
                </mxCell>
                <mxCell id="66" value="d&amp;lt;e" style="ellipse;whiteSpace=wrap;html=1;fontSize=24;" vertex="1" parent="1">
                    <mxGeometry x="340" y="750" width="80" height="80" as="geometry"/>
                </mxCell>
                <mxCell id="68" value="2" style="text;html=1;align=center;verticalAlign=middle;resizable=0;points=[];autosize=1;strokeColor=none;fillColor=none;fontSize=24;" vertex="1" parent="1">
                    <mxGeometry x="230" y="840" width="40" height="40" as="geometry"/>
                </mxCell>
                <mxCell id="269" style="edgeStyle=none;html=1;fontSize=48;" edge="1" parent="1" source="69">
                    <mxGeometry relative="1" as="geometry">
                        <mxPoint x="390" y="840" as="targetPoint"/>
                    </mxGeometry>
                </mxCell>
                <mxCell id="69" value="3" style="text;html=1;align=center;verticalAlign=middle;resizable=0;points=[];autosize=1;strokeColor=none;fillColor=none;fontSize=24;" vertex="1" parent="1">
                    <mxGeometry x="360" y="1010" width="40" height="40" as="geometry"/>
                </mxCell>
                <mxCell id="70" value="+1" style="text;html=1;align=center;verticalAlign=middle;resizable=0;points=[];autosize=1;strokeColor=none;fillColor=none;fontSize=24;" vertex="1" parent="1">
                    <mxGeometry x="410" y="740" width="50" height="40" as="geometry"/>
                </mxCell>
                <mxCell id="73" value="c&amp;gt;e" style="ellipse;whiteSpace=wrap;html=1;fontSize=24;" vertex="1" parent="1">
                    <mxGeometry x="460" y="750" width="80" height="80" as="geometry"/>
                </mxCell>
                <mxCell id="75" value="2" style="text;html=1;align=center;verticalAlign=middle;resizable=0;points=[];autosize=1;strokeColor=none;fillColor=none;fontSize=24;" vertex="1" parent="1">
                    <mxGeometry x="470" y="840" width="40" height="40" as="geometry"/>
                </mxCell>
                <mxCell id="79" style="edgeStyle=none;html=1;fontSize=24;entryX=0.5;entryY=0;entryDx=0;entryDy=0;" edge="1" parent="1" source="77" target="80">
                    <mxGeometry relative="1" as="geometry">
                        <mxPoint x="760" y="610" as="targetPoint"/>
                    </mxGeometry>
                </mxCell>
                <mxCell id="82" style="edgeStyle=none;html=1;fontSize=24;entryX=0.5;entryY=0;entryDx=0;entryDy=0;" edge="1" parent="1" source="77" target="84">
                    <mxGeometry relative="1" as="geometry">
                        <mxPoint x="740" y="610" as="targetPoint"/>
                    </mxGeometry>
                </mxCell>
                <mxCell id="77" value="c&amp;lt;d" style="ellipse;whiteSpace=wrap;html=1;fontSize=24;" vertex="1" parent="1">
                    <mxGeometry x="630" y="430" width="80" height="80" as="geometry"/>
                </mxCell>
                <mxCell id="78" value="+1" style="text;html=1;align=center;verticalAlign=middle;resizable=0;points=[];autosize=1;strokeColor=none;fillColor=none;fontSize=24;" vertex="1" parent="1">
                    <mxGeometry x="700" y="440" width="50" height="40" as="geometry"/>
                </mxCell>
                <mxCell id="80" value="d&amp;gt;e" style="ellipse;whiteSpace=wrap;html=1;fontSize=24;" vertex="1" parent="1">
                    <mxGeometry x="630" y="750" width="80" height="80" as="geometry"/>
                </mxCell>
                <mxCell id="81" value="3" style="text;html=1;align=center;verticalAlign=middle;resizable=0;points=[];autosize=1;strokeColor=none;fillColor=none;fontSize=24;" vertex="1" parent="1">
                    <mxGeometry x="650" y="845" width="40" height="40" as="geometry"/>
                </mxCell>
                <mxCell id="84" value="d&amp;lt;e" style="ellipse;whiteSpace=wrap;html=1;fontSize=24;" vertex="1" parent="1">
                    <mxGeometry x="740" y="750" width="80" height="80" as="geometry"/>
                </mxCell>
                <mxCell id="85" value="+1" style="text;html=1;align=center;verticalAlign=middle;resizable=0;points=[];autosize=1;strokeColor=none;fillColor=none;fontSize=24;" vertex="1" parent="1">
                    <mxGeometry x="820" y="760" width="50" height="40" as="geometry"/>
                </mxCell>
                <mxCell id="268" style="edgeStyle=none;html=1;entryX=0.5;entryY=1;entryDx=0;entryDy=0;fontSize=48;" edge="1" parent="1" source="86" target="84">
                    <mxGeometry relative="1" as="geometry"/>
                </mxCell>
                <mxCell id="86" value="4" style="text;html=1;align=center;verticalAlign=middle;resizable=0;points=[];autosize=1;strokeColor=none;fillColor=none;fontSize=24;" vertex="1" parent="1">
                    <mxGeometry x="770" y="990" width="40" height="40" as="geometry"/>
                </mxCell>
                <mxCell id="92" value="" style="edgeStyle=none;html=1;fontSize=24;" edge="1" parent="1" source="88" target="90">
                    <mxGeometry relative="1" as="geometry"/>
                </mxCell>
                <mxCell id="108" style="edgeStyle=none;html=1;fontSize=24;entryX=0.537;entryY=-0.044;entryDx=0;entryDy=0;entryPerimeter=0;" edge="1" parent="1" source="88" target="109">
                    <mxGeometry relative="1" as="geometry">
                        <mxPoint x="1070" y="430" as="targetPoint"/>
                    </mxGeometry>
                </mxCell>
                <mxCell id="88" value="b&amp;gt;c" style="ellipse;whiteSpace=wrap;html=1;fontSize=24;" vertex="1" parent="1">
                    <mxGeometry x="960" y="280" width="80" height="80" as="geometry"/>
                </mxCell>
                <mxCell id="94" value="" style="edgeStyle=none;html=1;fontSize=24;" edge="1" parent="1" source="90" target="93">
                    <mxGeometry relative="1" as="geometry"/>
                </mxCell>
                <mxCell id="104" value="" style="edgeStyle=none;html=1;fontSize=24;" edge="1" parent="1" source="90" target="93">
                    <mxGeometry relative="1" as="geometry"/>
                </mxCell>
                <mxCell id="246" style="edgeStyle=none;html=1;fontSize=48;" edge="1" parent="1" source="90" target="244">
                    <mxGeometry relative="1" as="geometry"/>
                </mxCell>
                <mxCell id="90" value="b&amp;gt;d" style="ellipse;whiteSpace=wrap;html=1;fontSize=24;" vertex="1" parent="1">
                    <mxGeometry x="920" y="430" width="80" height="80" as="geometry"/>
                </mxCell>
                <mxCell id="93" value="b&amp;gt;e" style="ellipse;whiteSpace=wrap;html=1;fontSize=24;" vertex="1" parent="1">
                    <mxGeometry x="850" y="650" width="80" height="80" as="geometry"/>
                </mxCell>
                <mxCell id="95" value="2" style="text;html=1;align=center;verticalAlign=middle;resizable=0;points=[];autosize=1;strokeColor=none;fillColor=none;fontSize=24;" vertex="1" parent="1">
                    <mxGeometry x="870" y="740" width="40" height="40" as="geometry"/>
                </mxCell>
                <mxCell id="100" value="" style="edgeStyle=none;html=1;fontSize=24;" edge="1" parent="1" source="97" target="99">
                    <mxGeometry relative="1" as="geometry"/>
                </mxCell>
                <mxCell id="120" style="edgeStyle=none;html=1;fontSize=24;entryX=0.259;entryY=0.066;entryDx=0;entryDy=0;entryPerimeter=0;" edge="1" parent="1" source="97" target="121">
                    <mxGeometry relative="1" as="geometry">
                        <mxPoint x="1410" y="449.9999999999998" as="targetPoint"/>
                    </mxGeometry>
                </mxCell>
                <mxCell id="97" value="b&amp;lt;c" style="ellipse;whiteSpace=wrap;html=1;fontSize=24;" vertex="1" parent="1">
                    <mxGeometry x="1250" y="280" width="80" height="80" as="geometry"/>
                </mxCell>
                <mxCell id="98" value="+1" style="text;html=1;align=center;verticalAlign=middle;resizable=0;points=[];autosize=1;strokeColor=none;fillColor=none;fontSize=24;" vertex="1" parent="1">
                    <mxGeometry x="1330" y="290" width="50" height="40" as="geometry"/>
                </mxCell>
                <mxCell id="102" value="" style="edgeStyle=none;html=1;fontSize=24;startArrow=none;" edge="1" parent="1" source="99" target="101">
                    <mxGeometry relative="1" as="geometry">
                        <mxPoint x="1252.7390284369776" y="590" as="sourcePoint"/>
                    </mxGeometry>
                </mxCell>
                <mxCell id="261" style="edgeStyle=none;html=1;fontSize=48;" edge="1" parent="1" source="99" target="258">
                    <mxGeometry relative="1" as="geometry"/>
                </mxCell>
                <mxCell id="99" value="c&amp;gt;d" style="ellipse;whiteSpace=wrap;html=1;fontSize=24;" vertex="1" parent="1">
                    <mxGeometry x="1200" y="450" width="80" height="80" as="geometry"/>
                </mxCell>
                <mxCell id="101" value="c&amp;gt;e" style="ellipse;whiteSpace=wrap;html=1;fontSize=24;" vertex="1" parent="1">
                    <mxGeometry x="1210" y="590" width="80" height="80" as="geometry"/>
                </mxCell>
                <mxCell id="103" value="3" style="text;html=1;align=center;verticalAlign=middle;resizable=0;points=[];autosize=1;strokeColor=none;fillColor=none;fontSize=24;" vertex="1" parent="1">
                    <mxGeometry x="1225" y="680" width="40" height="40" as="geometry"/>
                </mxCell>
                <mxCell id="113" value="" style="edgeStyle=none;html=1;fontSize=24;startArrow=none;exitX=0.372;exitY=0.98;exitDx=0;exitDy=0;exitPerimeter=0;" edge="1" parent="1" source="109" target="112">
                    <mxGeometry relative="1" as="geometry">
                        <mxPoint x="1070" y="570" as="sourcePoint"/>
                    </mxGeometry>
                </mxCell>
                <mxCell id="115" style="edgeStyle=none;html=1;fontSize=24;entryX=0.313;entryY=0.039;entryDx=0;entryDy=0;entryPerimeter=0;" edge="1" parent="1" source="109" target="116">
                    <mxGeometry relative="1" as="geometry">
                        <mxPoint x="1150" y="610" as="targetPoint"/>
                    </mxGeometry>
                </mxCell>
                <mxCell id="109" value="b&amp;lt;d" style="ellipse;whiteSpace=wrap;html=1;fontSize=24;" vertex="1" parent="1">
                    <mxGeometry x="1040" y="440" width="80" height="80" as="geometry"/>
                </mxCell>
                <mxCell id="110" value="+1" style="text;html=1;align=center;verticalAlign=middle;resizable=0;points=[];autosize=1;strokeColor=none;fillColor=none;fontSize=24;" vertex="1" parent="1">
                    <mxGeometry x="1120" y="440" width="50" height="40" as="geometry"/>
                </mxCell>
                <mxCell id="112" value="d&amp;gt;e" style="ellipse;whiteSpace=wrap;html=1;fontSize=24;" vertex="1" parent="1">
                    <mxGeometry x="1010" y="750" width="80" height="80" as="geometry"/>
                </mxCell>
                <mxCell id="114" value="3" style="text;html=1;align=center;verticalAlign=middle;resizable=0;points=[];autosize=1;strokeColor=none;fillColor=none;fontSize=24;" vertex="1" parent="1">
                    <mxGeometry x="1030" y="840" width="40" height="40" as="geometry"/>
                </mxCell>
                <mxCell id="116" value="d&amp;lt;e" style="ellipse;whiteSpace=wrap;html=1;fontSize=24;" vertex="1" parent="1">
                    <mxGeometry x="1120" y="750" width="80" height="80" as="geometry"/>
                </mxCell>
                <mxCell id="266" style="edgeStyle=none;html=1;entryX=0.5;entryY=1;entryDx=0;entryDy=0;fontSize=48;" edge="1" parent="1" source="117" target="116">
                    <mxGeometry relative="1" as="geometry"/>
                </mxCell>
                <mxCell id="117" value="4" style="text;html=1;align=center;verticalAlign=middle;resizable=0;points=[];autosize=1;strokeColor=none;fillColor=none;fontSize=24;" vertex="1" parent="1">
                    <mxGeometry x="1130" y="995" width="40" height="40" as="geometry"/>
                </mxCell>
                <mxCell id="118" value="+1" style="text;html=1;align=center;verticalAlign=middle;resizable=0;points=[];autosize=1;strokeColor=none;fillColor=none;fontSize=24;" vertex="1" parent="1">
                    <mxGeometry x="1180" y="720" width="50" height="40" as="geometry"/>
                </mxCell>
                <mxCell id="124" style="edgeStyle=none;html=1;entryX=0.5;entryY=0;entryDx=0;entryDy=0;fontSize=24;" edge="1" parent="1" source="121" target="123">
                    <mxGeometry relative="1" as="geometry"/>
                </mxCell>
                <mxCell id="125" style="edgeStyle=none;html=1;fontSize=24;entryX=0.5;entryY=0;entryDx=0;entryDy=0;" edge="1" parent="1" source="121" target="126">
                    <mxGeometry relative="1" as="geometry">
                        <mxPoint x="1490" y="580" as="targetPoint"/>
                    </mxGeometry>
                </mxCell>
                <mxCell id="121" value="c&amp;lt;d" style="ellipse;whiteSpace=wrap;html=1;fontSize=24;" vertex="1" parent="1">
                    <mxGeometry x="1370" y="440" width="80" height="80" as="geometry"/>
                </mxCell>
                <mxCell id="122" value="+1" style="text;html=1;align=center;verticalAlign=middle;resizable=0;points=[];autosize=1;strokeColor=none;fillColor=none;fontSize=24;" vertex="1" parent="1">
                    <mxGeometry x="1430" y="420" width="50" height="40" as="geometry"/>
                </mxCell>
                <mxCell id="123" value="d&amp;gt;e" style="ellipse;whiteSpace=wrap;html=1;fontSize=24;" vertex="1" parent="1">
                    <mxGeometry x="1360" y="750" width="80" height="80" as="geometry"/>
                </mxCell>
                <mxCell id="126" value="d&amp;lt;e" style="ellipse;whiteSpace=wrap;html=1;fontSize=24;" vertex="1" parent="1">
                    <mxGeometry x="1470" y="750" width="80" height="80" as="geometry"/>
                </mxCell>
                <mxCell id="127" value="4" style="text;html=1;align=center;verticalAlign=middle;resizable=0;points=[];autosize=1;strokeColor=none;fillColor=none;fontSize=24;" vertex="1" parent="1">
                    <mxGeometry x="1380" y="840" width="40" height="40" as="geometry"/>
                </mxCell>
                <mxCell id="128" value="+1" style="text;html=1;align=center;verticalAlign=middle;resizable=0;points=[];autosize=1;strokeColor=none;fillColor=none;fontSize=24;" vertex="1" parent="1">
                    <mxGeometry x="1545" y="750" width="50" height="40" as="geometry"/>
                </mxCell>
                <mxCell id="271" style="edgeStyle=none;html=1;fontSize=48;" edge="1" parent="1" source="129" target="126">
                    <mxGeometry relative="1" as="geometry"/>
                </mxCell>
                <mxCell id="129" value="5" style="text;html=1;align=center;verticalAlign=middle;resizable=0;points=[];autosize=1;strokeColor=none;fillColor=none;fontSize=24;" vertex="1" parent="1">
                    <mxGeometry x="1490" y="1000" width="40" height="40" as="geometry"/>
                </mxCell>
                <mxCell id="149" value="" style="ellipse;whiteSpace=wrap;html=1;fontSize=24;" vertex="1" parent="1">
                    <mxGeometry x="-1450" y="-320" width="1310" height="1310" as="geometry"/>
                </mxCell>
                <mxCell id="150" style="edgeStyle=none;html=1;exitX=0.5;exitY=1;exitDx=0;exitDy=0;entryX=0.5;entryY=0;entryDx=0;entryDy=0;fontSize=24;" edge="1" parent="1" source="149" target="149">
                    <mxGeometry relative="1" as="geometry"/>
                </mxCell>
                <mxCell id="151" style="edgeStyle=none;html=1;exitX=1;exitY=0.5;exitDx=0;exitDy=0;entryX=0;entryY=0.5;entryDx=0;entryDy=0;fontSize=24;" edge="1" parent="1" source="149" target="149">
                    <mxGeometry relative="1" as="geometry"/>
                </mxCell>
                <mxCell id="152" style="edgeStyle=none;html=1;exitX=0;exitY=0;exitDx=0;exitDy=0;entryX=1;entryY=1;entryDx=0;entryDy=0;fontSize=24;" edge="1" parent="1" source="149" target="149">
                    <mxGeometry relative="1" as="geometry"/>
                </mxCell>
                <mxCell id="153" style="edgeStyle=none;html=1;exitX=0;exitY=1;exitDx=0;exitDy=0;entryX=1;entryY=0;entryDx=0;entryDy=0;fontSize=24;" edge="1" parent="1" source="149" target="149">
                    <mxGeometry relative="1" as="geometry"/>
                </mxCell>
                <mxCell id="166" value="&lt;font style=&quot;font-size: 72px;&quot;&gt;a&lt;/font&gt;" style="text;html=1;align=center;verticalAlign=middle;resizable=0;points=[];autosize=1;strokeColor=none;fillColor=none;fontSize=24;" vertex="1" parent="1">
                    <mxGeometry x="-1060" y="-400" width="60" height="100" as="geometry"/>
                </mxCell>
                <mxCell id="167" value="1" style="text;html=1;align=center;verticalAlign=middle;resizable=0;points=[];autosize=1;strokeColor=none;fillColor=none;fontSize=72;" vertex="1" parent="1">
                    <mxGeometry x="-980" y="-410" width="60" height="100" as="geometry"/>
                </mxCell>
                <mxCell id="168" value="b" style="text;html=1;align=center;verticalAlign=middle;resizable=0;points=[];autosize=1;strokeColor=none;fillColor=none;fontSize=72;" vertex="1" parent="1">
                    <mxGeometry x="-570" y="-390" width="60" height="100" as="geometry"/>
                </mxCell>
                <mxCell id="169" value="2" style="text;html=1;align=center;verticalAlign=middle;resizable=0;points=[];autosize=1;strokeColor=none;fillColor=none;fontSize=72;" vertex="1" parent="1">
                    <mxGeometry x="-490" y="-360" width="60" height="100" as="geometry"/>
                </mxCell>
                <mxCell id="170" value="c" style="text;html=1;align=center;verticalAlign=middle;resizable=0;points=[];autosize=1;strokeColor=none;fillColor=none;fontSize=72;" vertex="1" parent="1">
                    <mxGeometry x="-120" y="290" width="60" height="100" as="geometry"/>
                </mxCell>
                <mxCell id="171" value="5" style="text;html=1;align=center;verticalAlign=middle;resizable=0;points=[];autosize=1;strokeColor=none;fillColor=none;fontSize=72;" vertex="1" parent="1">
                    <mxGeometry x="110" y="280" width="60" height="100" as="geometry"/>
                </mxCell>
                <mxCell id="172" value="2" style="text;html=1;align=center;verticalAlign=middle;resizable=0;points=[];autosize=1;strokeColor=none;fillColor=none;fontSize=72;" vertex="1" parent="1">
                    <mxGeometry x="-190" y="-10" width="60" height="100" as="geometry"/>
                </mxCell>
                <mxCell id="173" value="3" style="text;html=1;align=center;verticalAlign=middle;resizable=0;points=[];autosize=1;strokeColor=none;fillColor=none;fontSize=72;" vertex="1" parent="1">
                    <mxGeometry x="-200" y="600" width="60" height="100" as="geometry"/>
                </mxCell>
                <mxCell id="176" value="e" style="text;html=1;align=center;verticalAlign=middle;resizable=0;points=[];autosize=1;strokeColor=none;fillColor=none;fontSize=72;" vertex="1" parent="1">
                    <mxGeometry x="-1620" y="310" width="60" height="100" as="geometry"/>
                </mxCell>
                <mxCell id="188" value="d" style="text;html=1;align=center;verticalAlign=middle;resizable=0;points=[];autosize=1;strokeColor=none;fillColor=none;fontSize=24;" vertex="1" parent="1">
                    <mxGeometry x="230" y="880" width="40" height="40" as="geometry"/>
                </mxCell>
                <mxCell id="191" value="d" style="text;html=1;align=center;verticalAlign=middle;resizable=0;points=[];autosize=1;strokeColor=none;fillColor=none;fontSize=24;" vertex="1" parent="1">
                    <mxGeometry x="1030" y="890" width="40" height="40" as="geometry"/>
                </mxCell>
                <mxCell id="192" value="d" style="text;html=1;align=center;verticalAlign=middle;resizable=0;points=[];autosize=1;strokeColor=none;fillColor=none;fontSize=24;" vertex="1" parent="1">
                    <mxGeometry x="1380" y="890" width="40" height="40" as="geometry"/>
                </mxCell>
                <mxCell id="193" value="" style="edgeStyle=none;orthogonalLoop=1;jettySize=auto;html=1;fontSize=24;exitX=0.038;exitY=0.679;exitDx=0;exitDy=0;exitPerimeter=0;" edge="1" parent="1" source="149">
                    <mxGeometry width="80" relative="1" as="geometry">
                        <mxPoint x="-1040" y="930" as="sourcePoint"/>
                        <mxPoint x="-790" y="330" as="targetPoint"/>
                        <Array as="points"/>
                    </mxGeometry>
                </mxCell>
                <mxCell id="194" value="" style="edgeStyle=none;orthogonalLoop=1;jettySize=auto;html=1;fontSize=24;entryX=0.669;entryY=0.975;entryDx=0;entryDy=0;entryPerimeter=0;" edge="1" parent="1" target="149">
                    <mxGeometry width="80" relative="1" as="geometry">
                        <mxPoint x="-790" y="340" as="sourcePoint"/>
                        <mxPoint x="-330" y="970" as="targetPoint"/>
                        <Array as="points"/>
                    </mxGeometry>
                </mxCell>
                <mxCell id="202" value="&lt;font style=&quot;font-size: 72px;&quot;&gt;4&lt;/font&gt;" style="text;strokeColor=none;align=center;fillColor=none;html=1;verticalAlign=middle;whiteSpace=wrap;rounded=0;fontSize=24;" vertex="1" parent="1">
                    <mxGeometry x="-1270" y="880" width="170" height="120" as="geometry"/>
                </mxCell>
                <mxCell id="203" value="12" style="text;html=1;align=center;verticalAlign=middle;resizable=0;points=[];autosize=1;strokeColor=none;fillColor=none;fontSize=72;" vertex="1" parent="1">
                    <mxGeometry x="-860" y="1230" width="100" height="100" as="geometry"/>
                </mxCell>
                <mxCell id="214" value="" style="edgeStyle=none;html=1;fontSize=24;endArrow=none;" edge="1" parent="1" source="99">
                    <mxGeometry relative="1" as="geometry">
                        <mxPoint x="1245.0865726403108" y="529.6752665944223" as="sourcePoint"/>
                        <mxPoint x="1247.5" y="550" as="targetPoint"/>
                    </mxGeometry>
                </mxCell>
                <mxCell id="218" value="&lt;font style=&quot;font-size: 48px;&quot;&gt;3&lt;/font&gt;" style="text;html=1;align=center;verticalAlign=middle;resizable=0;points=[];autosize=1;strokeColor=none;fillColor=none;fontSize=24;" vertex="1" parent="1">
                    <mxGeometry x="-995" y="965" width="50" height="70" as="geometry"/>
                </mxCell>
                <mxCell id="219" value="3" style="text;html=1;align=center;verticalAlign=middle;resizable=0;points=[];autosize=1;strokeColor=none;fillColor=none;fontSize=48;" vertex="1" parent="1">
                    <mxGeometry x="-690" y="990" width="50" height="70" as="geometry"/>
                </mxCell>
                <mxCell id="220" value="2" style="text;html=1;align=center;verticalAlign=middle;resizable=0;points=[];autosize=1;strokeColor=none;fillColor=none;fontSize=48;" vertex="1" parent="1">
                    <mxGeometry x="-440" y="920" width="50" height="70" as="geometry"/>
                </mxCell>
                <mxCell id="223" value="d" style="text;html=1;align=center;verticalAlign=middle;resizable=0;points=[];autosize=1;strokeColor=none;fillColor=none;fontSize=48;" vertex="1" parent="1">
                    <mxGeometry x="-835" y="1020" width="50" height="70" as="geometry"/>
                </mxCell>
                <mxCell id="226" value="a&amp;lt;e" style="ellipse;whiteSpace=wrap;html=1;fontSize=24;" vertex="1" parent="1">
                    <mxGeometry x="100" y="730" width="80" height="80" as="geometry"/>
                </mxCell>
                <mxCell id="270" style="edgeStyle=none;html=1;entryX=0.5;entryY=1;entryDx=0;entryDy=0;fontSize=48;" edge="1" parent="1" source="227" target="226">
                    <mxGeometry relative="1" as="geometry"/>
                </mxCell>
                <mxCell id="227" value="2" style="text;html=1;align=center;verticalAlign=middle;resizable=0;points=[];autosize=1;strokeColor=none;fillColor=none;fontSize=48;" vertex="1" parent="1">
                    <mxGeometry x="110" y="965" width="50" height="70" as="geometry"/>
                </mxCell>
                <mxCell id="230" value="+1" style="text;html=1;align=center;verticalAlign=middle;resizable=0;points=[];autosize=1;strokeColor=none;fillColor=none;fontSize=24;" vertex="1" parent="1">
                    <mxGeometry x="160" y="730" width="50" height="40" as="geometry"/>
                </mxCell>
                <mxCell id="231" value="" style="edgeStyle=none;orthogonalLoop=1;jettySize=auto;html=1;fontSize=24;exitX=0.311;exitY=0.966;exitDx=0;exitDy=0;exitPerimeter=0;" edge="1" parent="1">
                    <mxGeometry width="80" relative="1" as="geometry">
                        <mxPoint x="-1032.5900000000001" y="955.46" as="sourcePoint"/>
                        <mxPoint x="-780" y="340" as="targetPoint"/>
                        <Array as="points"/>
                    </mxGeometry>
                </mxCell>
                <mxCell id="254" style="edgeStyle=none;html=1;fontSize=48;" edge="1" parent="1" source="232" target="149">
                    <mxGeometry relative="1" as="geometry"/>
                </mxCell>
                <mxCell id="232" value="2" style="text;html=1;align=center;verticalAlign=middle;resizable=0;points=[];autosize=1;strokeColor=none;fillColor=none;fontSize=48;" vertex="1" parent="1">
                    <mxGeometry x="-1430" y="690" width="50" height="70" as="geometry"/>
                </mxCell>
                <mxCell id="253" style="edgeStyle=none;html=1;fontSize=48;" edge="1" parent="1" source="233" target="149">
                    <mxGeometry relative="1" as="geometry"/>
                </mxCell>
                <mxCell id="233" value="5" style="text;html=1;align=center;verticalAlign=middle;resizable=0;points=[];autosize=1;strokeColor=none;fillColor=none;fontSize=48;" vertex="1" parent="1">
                    <mxGeometry x="-1520" y="390" width="50" height="70" as="geometry"/>
                </mxCell>
                <mxCell id="239" style="edgeStyle=none;html=1;fontSize=48;" edge="1" parent="1" source="235" target="240">
                    <mxGeometry relative="1" as="geometry">
                        <mxPoint x="570" y="890" as="targetPoint"/>
                    </mxGeometry>
                </mxCell>
                <mxCell id="235" value="c&amp;lt;e" style="ellipse;whiteSpace=wrap;html=1;fontSize=24;" vertex="1" parent="1">
                    <mxGeometry x="540" y="750" width="80" height="80" as="geometry"/>
                </mxCell>
                <mxCell id="238" value="+1" style="text;html=1;align=center;verticalAlign=middle;resizable=0;points=[];autosize=1;strokeColor=none;fillColor=none;fontSize=24;" vertex="1" parent="1">
                    <mxGeometry x="620" y="640" width="50" height="40" as="geometry"/>
                </mxCell>
                <mxCell id="240" value="3" style="text;html=1;align=center;verticalAlign=middle;resizable=0;points=[];autosize=1;strokeColor=none;fillColor=none;fontSize=48;" vertex="1" parent="1">
                    <mxGeometry x="540" y="980" width="50" height="70" as="geometry"/>
                </mxCell>
                <mxCell id="250" style="edgeStyle=none;html=1;fontSize=48;" edge="1" parent="1" source="241" target="149">
                    <mxGeometry relative="1" as="geometry"/>
                </mxCell>
                <mxCell id="241" value="3" style="text;html=1;align=center;verticalAlign=middle;resizable=0;points=[];autosize=1;strokeColor=none;fillColor=none;fontSize=48;" vertex="1" parent="1">
                    <mxGeometry x="-1520" y="60" width="50" height="70" as="geometry"/>
                </mxCell>
                <mxCell id="242" value="" style="edgeStyle=none;orthogonalLoop=1;jettySize=auto;html=1;fontSize=24;exitX=0.038;exitY=0.307;exitDx=0;exitDy=0;exitPerimeter=0;" edge="1" parent="1" source="149">
                    <mxGeometry width="80" relative="1" as="geometry">
                        <mxPoint x="-1390.2200000000012" y="579.4899999999998" as="sourcePoint"/>
                        <mxPoint x="-780" y="340" as="targetPoint"/>
                        <Array as="points"/>
                    </mxGeometry>
                </mxCell>
                <mxCell id="251" style="edgeStyle=none;html=1;fontSize=48;" edge="1" parent="1" source="243" target="149">
                    <mxGeometry relative="1" as="geometry"/>
                </mxCell>
                <mxCell id="243" value="4" style="text;html=1;align=center;verticalAlign=middle;resizable=0;points=[];autosize=1;strokeColor=none;fillColor=none;fontSize=48;" vertex="1" parent="1">
                    <mxGeometry x="-1430" y="-160" width="50" height="70" as="geometry"/>
                </mxCell>
                <mxCell id="244" value="b&amp;lt;e" style="ellipse;whiteSpace=wrap;html=1;fontSize=24;" vertex="1" parent="1">
                    <mxGeometry x="940" y="650" width="80" height="80" as="geometry"/>
                </mxCell>
                <mxCell id="245" value="+1" style="text;html=1;align=center;verticalAlign=middle;resizable=0;points=[];autosize=1;strokeColor=none;fillColor=none;fontSize=24;" vertex="1" parent="1">
                    <mxGeometry x="990" y="630" width="50" height="40" as="geometry"/>
                </mxCell>
                <mxCell id="267" style="edgeStyle=none;html=1;fontSize=48;" edge="1" parent="1" source="247">
                    <mxGeometry relative="1" as="geometry">
                        <mxPoint x="970" y="740" as="targetPoint"/>
                    </mxGeometry>
                </mxCell>
                <mxCell id="247" value="3" style="text;html=1;align=center;verticalAlign=middle;resizable=0;points=[];autosize=1;strokeColor=none;fillColor=none;fontSize=24;" vertex="1" parent="1">
                    <mxGeometry x="930" y="995" width="40" height="40" as="geometry"/>
                </mxCell>
                <mxCell id="248" value="" style="edgeStyle=none;orthogonalLoop=1;jettySize=auto;html=1;fontSize=24;exitX=0.007;exitY=0.42;exitDx=0;exitDy=0;exitPerimeter=0;" edge="1" parent="1" source="149">
                    <mxGeometry width="80" relative="1" as="geometry">
                        <mxPoint x="-1390.2200000000012" y="92.16999999999962" as="sourcePoint"/>
                        <mxPoint x="-770" y="350" as="targetPoint"/>
                        <Array as="points"/>
                    </mxGeometry>
                </mxCell>
                <mxCell id="252" style="edgeStyle=none;html=1;fontSize=48;" edge="1" parent="1" source="249" target="149">
                    <mxGeometry relative="1" as="geometry"/>
                </mxCell>
                <mxCell id="249" value="4" style="text;html=1;align=center;verticalAlign=middle;resizable=0;points=[];autosize=1;strokeColor=none;fillColor=none;fontSize=48;" vertex="1" parent="1">
                    <mxGeometry x="-1550" y="220" width="50" height="70" as="geometry"/>
                </mxCell>
                <mxCell id="255" value="" style="edgeStyle=none;orthogonalLoop=1;jettySize=auto;html=1;fontSize=24;" edge="1" parent="1">
                    <mxGeometry width="80" relative="1" as="geometry">
                        <mxPoint x="-1450" y="480" as="sourcePoint"/>
                        <mxPoint x="-790" y="330" as="targetPoint"/>
                        <Array as="points"/>
                    </mxGeometry>
                </mxCell>
                <mxCell id="257" style="edgeStyle=none;html=1;fontSize=48;" edge="1" parent="1" source="256" target="149">
                    <mxGeometry relative="1" as="geometry"/>
                </mxCell>
                <mxCell id="256" value="3" style="text;html=1;align=center;verticalAlign=middle;resizable=0;points=[];autosize=1;strokeColor=none;fillColor=none;fontSize=48;" vertex="1" parent="1">
                    <mxGeometry x="-1495" y="495" width="50" height="70" as="geometry"/>
                </mxCell>
                <mxCell id="258" value="c&amp;lt;e" style="ellipse;whiteSpace=wrap;html=1;fontSize=24;" vertex="1" parent="1">
                    <mxGeometry x="1300" y="590" width="80" height="80" as="geometry"/>
                </mxCell>
                <mxCell id="265" style="edgeStyle=none;html=1;entryX=0.5;entryY=1;entryDx=0;entryDy=0;fontSize=48;" edge="1" parent="1" source="259" target="258">
                    <mxGeometry relative="1" as="geometry"/>
                </mxCell>
                <mxCell id="259" value="4" style="text;html=1;align=center;verticalAlign=middle;resizable=0;points=[];autosize=1;strokeColor=none;fillColor=none;fontSize=24;" vertex="1" parent="1">
                    <mxGeometry x="1280" y="990" width="40" height="40" as="geometry"/>
                </mxCell>
                <mxCell id="260" value="+1" style="text;html=1;align=center;verticalAlign=middle;resizable=0;points=[];autosize=1;strokeColor=none;fillColor=none;fontSize=24;" vertex="1" parent="1">
                    <mxGeometry x="1340" y="550" width="50" height="40" as="geometry"/>
                </mxCell>
                <mxCell id="262" value="" style="edgeStyle=none;orthogonalLoop=1;jettySize=auto;html=1;fontSize=24;exitX=0.064;exitY=0.248;exitDx=0;exitDy=0;exitPerimeter=0;" edge="1" parent="1" source="149">
                    <mxGeometry width="80" relative="1" as="geometry">
                        <mxPoint x="-1425.5900000000001" y="215.30999999999995" as="sourcePoint"/>
                        <mxPoint x="-790" y="335" as="targetPoint"/>
                        <Array as="points"/>
                    </mxGeometry>
                </mxCell>
                <mxCell id="264" style="edgeStyle=none;html=1;fontSize=48;" edge="1" parent="1" source="263" target="149">
                    <mxGeometry relative="1" as="geometry"/>
                </mxCell>
                <mxCell id="263" value="4" style="text;html=1;align=center;verticalAlign=middle;resizable=0;points=[];autosize=1;strokeColor=none;fillColor=none;fontSize=48;" vertex="1" parent="1">
                    <mxGeometry x="-1495" y="-30" width="50" height="70" as="geometry"/>
                </mxCell>
                <mxCell id="275" value="" style="edgeStyle=none;orthogonalLoop=1;jettySize=auto;html=1;fontSize=24;exitX=0.019;exitY=0.359;exitDx=0;exitDy=0;exitPerimeter=0;" edge="1" parent="1" source="149">
                    <mxGeometry width="80" relative="1" as="geometry">
                        <mxPoint x="-1425.5900000000001" y="215.30999999999995" as="sourcePoint"/>
                        <mxPoint x="-760" y="360" as="targetPoint"/>
                        <Array as="points"/>
                    </mxGeometry>
                </mxCell>
                <mxCell id="277" style="edgeStyle=none;html=1;fontSize=48;" edge="1" parent="1" source="276" target="149">
                    <mxGeometry relative="1" as="geometry"/>
                </mxCell>
                <mxCell id="276" value="3" style="text;html=1;align=center;verticalAlign=middle;resizable=0;points=[];autosize=1;strokeColor=none;fillColor=none;fontSize=48;" vertex="1" parent="1">
                    <mxGeometry x="-1545" y="130" width="50" height="70" as="geometry"/>
                </mxCell>
            </root>
        </mxGraphModel>
    </diagram>
</mxfile>